<?xml version="1.0" encoding="UTF-8" standalone="no"?>
<!DOCTYPE svg PUBLIC "-//W3C//DTD SVG 1.1//EN" "http://www.w3.org/Graphics/SVG/1.1/DTD/svg11.dtd">
<svg width="100%" height="100%" viewBox="0 0 400 400" version="1.1" xmlns="http://www.w3.org/2000/svg" xmlns:xlink="http://www.w3.org/1999/xlink" xml:space="preserve" xmlns:serif="http://www.serif.com/" style="fill-rule:evenodd;clip-rule:evenodd;stroke-linecap:round;stroke-linejoin:round;stroke-miterlimit:1.5;">
    <rect id="Artboard1" x="0" y="0" width="400" height="400" style="fill:none;"/>
    <g id="Artboard11" serif:id="Artboard1">
        <g transform="matrix(0.863764,0,0,0.863764,-76.0632,-117.152)">
            <circle cx="319.605" cy="367.175" r="204.433" style="fill:none;stroke:rgb(219,133,226);stroke-width:14.47px;"/>
        </g>
        <g id="twitter.svg" transform="matrix(0.451504,0,0,0.451504,200,200)">
            <g transform="matrix(1,0,0,1,-256,-256)">
                <clipPath id="_clip1">
                    <rect x="0" y="0" width="512" height="512"/>
                </clipPath>
                <g clip-path="url(#_clip1)">
                    <g>
                        <g>
                            <path d="M512,97.248C492.96,105.6 472.672,111.136 451.52,113.824C473.28,100.832 489.888,80.416 497.696,55.808C477.408,67.904 455.008,76.448 431.136,81.216C411.872,60.704 384.416,48 354.464,48C296.352,48 249.568,95.168 249.568,152.992C249.568,161.312 250.272,169.312 252,176.928C164.736,172.672 87.52,130.848 35.648,67.136C26.592,82.848 21.28,100.832 21.28,120.192C21.28,156.544 40,188.768 67.904,207.424C51.04,207.104 34.496,202.208 20.48,194.496L20.48,195.648C20.48,246.656 56.864,289.024 104.576,298.784C96.032,301.12 86.72,302.24 77.056,302.24C70.336,302.24 63.552,301.856 57.184,300.448C70.784,342.016 109.376,372.576 155.264,373.568C119.552,401.504 74.208,418.336 25.12,418.336C16.512,418.336 8.256,417.952 -0,416.896C46.496,446.88 101.6,464 161.024,464C354.176,464 459.776,304 459.776,165.312C459.776,160.672 459.616,156.192 459.392,151.744C480.224,136.96 497.728,118.496 512,97.248Z" style="fill:rgb(219,133,226);fill-rule:nonzero;"/>
                        </g>
                    </g>
                </g>
            </g>
        </g>
    </g>
</svg>
